<?xml version="1.0" encoding="UTF-8" standalone="no"?>
<!DOCTYPE svg PUBLIC "-//W3C//DTD SVG 1.1//EN"
 "http://www.w3.org/Graphics/SVG/1.1/DTD/svg11.dtd">
<!-- Generated by graphviz version 2.30.1 (20180420.1509)
 -->
<!-- Title: snakemake_dag Pages: 1 -->
<svg width="940pt" height="822pt"
 viewBox="0.00 0.00 940.00 822.00" xmlns="http://www.w3.org/2000/svg" xmlns:xlink="http://www.w3.org/1999/xlink">
<g id="graph0" class="graph" transform="scale(1 1) rotate(0) translate(4 818)">
<title>snakemake_dag</title>
<polygon fill="white" stroke="white" points="-4,5 -4,-818 937,-818 937,5 -4,5"/>
<!-- 0 -->
<g id="node1" class="node"><title>0</title>
<text text-anchor="start" x="415.5" y="-169.1" font-family="sans" font-weight="bold" font-size="18.00">all</text>
<text text-anchor="start" x="313" y="-146.8" font-family="sans" font-size="10.00"> </text>
<text text-anchor="start" x="317" y="-146.8" font-family="sans" font-weight="bold" font-size="14.00">↪ input</text>
<text text-anchor="start" x="378" y="-146.8" font-family="sans" font-size="10.00"> </text>
<text text-anchor="start" x="313" y="-129" font-family="monospace" font-size="10.00">errorStats/mPumCon1/IGH.txt</text>
<text text-anchor="start" x="313" y="-112" font-family="monospace" font-size="10.00">errorStats/mPumCon1/IGH_alt_pileup.txt</text>
<text text-anchor="start" x="313" y="-95" font-family="monospace" font-size="10.00">errorStats/mPumCon1/IGK.txt</text>
<text text-anchor="start" x="313" y="-78" font-family="monospace" font-size="10.00">errorStats/mPumCon1/IGK_alt_pileup.txt</text>
<text text-anchor="start" x="313" y="-61" font-family="monospace" font-size="10.00">errorStats/mPumCon1/IGL.txt</text>
<text text-anchor="start" x="313" y="-44" font-family="monospace" font-size="10.00">errorStats/mPumCon1/IGL_alt_pileup.txt</text>
<text text-anchor="start" x="313" y="-27" font-family="monospace" font-size="10.00">errorStats/mPumCon1/nonIG.txt</text>
<text text-anchor="start" x="536" y="-10" font-family="sans" font-size="10.00"> &#160;</text>
<polygon fill="#add957" stroke="#add957" points="307,-161 307,-161 550,-161 550,-161 307,-161"/>
<polygon fill="#add957" stroke="#add957" points="307,-21 307,-21 550,-21 550,-21 307,-21"/>
<polygon fill="none" stroke="#add957" stroke-width="2" points="307,-1 307,-189 549,-189 549,-1 307,-1"/>
</g>
<!-- 1 -->
<g id="node2" class="node"><title>1</title>
<text text-anchor="start" x="148" y="-416.1" font-family="sans" font-weight="bold" font-size="18.00">cigarProcessing</text>
<text text-anchor="start" x="44" y="-393.8" font-family="sans" font-size="10.00"> </text>
<text text-anchor="start" x="48" y="-393.8" font-family="sans" font-weight="bold" font-size="14.00">↪ input</text>
<text text-anchor="start" x="109" y="-393.8" font-family="sans" font-size="10.00"> </text>
<text text-anchor="start" x="44" y="-376" font-family="monospace" font-size="10.00">aligned_bam/{species}/{species}_merged_sorted_primary.bam</text>
<text text-anchor="start" x="44" y="-359" font-family="monospace" font-size="10.00">aligned_bam/{species}/{species}_merged_sorted_primary.bam.csi</text>
<text text-anchor="start" x="44" y="-342" font-family="monospace" font-size="10.00">code/cigar_processing_region.py</text>
<text text-anchor="start" x="44" y="-325" font-family="monospace" font-size="10.00">gene_position/{species}/final.Ig_loci.txt</text>
<text text-anchor="start" x="331" y="-304.8" font-family="sans" font-size="10.00"> </text>
<text text-anchor="start" x="335" y="-304.8" font-family="sans" font-weight="bold" font-size="14.00">output →</text>
<text text-anchor="start" x="408" y="-304.8" font-family="sans" font-size="10.00"> </text>
<text text-anchor="start" x="44" y="-287" font-family="monospace" font-size="10.00">errorStats/{species}/IGH.txt</text>
<text text-anchor="start" x="44" y="-270" font-family="monospace" font-size="10.00">errorStats/{species}/IGK.txt</text>
<text text-anchor="start" x="44" y="-253" font-family="monospace" font-size="10.00">errorStats/{species}/IGL.txt</text>
<text text-anchor="start" x="44" y="-236" font-family="monospace" font-size="10.00">errorStats/{species}/nonIG.txt</text>
<polygon fill="#d9ad57" stroke="#d9ad57" points="38,-408 38,-408 419,-408 419,-408 38,-408"/>
<polygon fill="#d9ad57" stroke="#d9ad57" points="38,-319 38,-319 419,-319 419,-319 38,-319"/>
<polygon fill="none" stroke="#d9ad57" stroke-width="2" points="38,-227.5 38,-436.5 418,-436.5 418,-227.5 38,-227.5"/>
</g>
<!-- 1&#45;&gt;0 -->
<g id="edge2" class="edge"><title>1&#45;&gt;0</title>
<path fill="none" stroke="grey" stroke-width="2" d="M317.179,-226.215C325.154,-216.844 333.222,-207.364 341.177,-198.017"/>
<polygon fill="grey" stroke="grey" points="344.013,-200.086 347.828,-190.202 338.682,-195.549 344.013,-200.086"/>
</g>
<!-- 2 -->
<g id="node3" class="node"><title>2</title>
<text text-anchor="start" x="90" y="-605.1" font-family="sans" font-weight="bold" font-size="18.00">convertPrimaryBam</text>
<text text-anchor="start" x="7" y="-582.8" font-family="sans" font-size="10.00"> </text>
<text text-anchor="start" x="11" y="-582.8" font-family="sans" font-weight="bold" font-size="14.00">↪ input</text>
<text text-anchor="start" x="72" y="-582.8" font-family="sans" font-size="10.00"> </text>
<text text-anchor="start" x="7" y="-565" font-family="monospace" font-size="10.00">aligned_bam/{species}/{species}_merged_sorted.bam</text>
<text text-anchor="start" x="294" y="-544.8" font-family="sans" font-size="10.00"> </text>
<text text-anchor="start" x="298" y="-544.8" font-family="sans" font-weight="bold" font-size="14.00">output →</text>
<text text-anchor="start" x="371" y="-544.8" font-family="sans" font-size="10.00"> </text>
<text text-anchor="start" x="7" y="-527" font-family="monospace" font-size="10.00">aligned_bam/{species}/{species}_merged_sorted_primary.bam</text>
<text text-anchor="start" x="7" y="-510" font-family="monospace" font-size="10.00">aligned_bam/{species}/{species}_merged_sorted_primary.bam.csi</text>
<polygon fill="#d95757" stroke="#d95757" points="1,-597 1,-597 382,-597 382,-597 1,-597"/>
<polygon fill="#d95757" stroke="#d95757" points="1,-559 1,-559 382,-559 382,-559 1,-559"/>
<polygon fill="none" stroke="#d95757" stroke-width="2" points="1,-501 1,-625 381,-625 381,-501 1,-501"/>
</g>
<!-- 2&#45;&gt;1 -->
<g id="edge3" class="edge"><title>2&#45;&gt;1</title>
<path fill="none" stroke="grey" stroke-width="2" d="M201.062,-499.727C203.68,-483.524 206.585,-465.544 209.49,-447.562"/>
<polygon fill="grey" stroke="grey" points="212.962,-448.013 211.102,-437.583 206.052,-446.897 212.962,-448.013"/>
</g>
<!-- 5 -->
<g id="node6" class="node"><title>5</title>
<text text-anchor="start" x="539.5" y="-399.1" font-family="sans" font-weight="bold" font-size="18.00">coverageAnalysis</text>
<text text-anchor="start" x="444" y="-376.8" font-family="sans" font-size="10.00"> </text>
<text text-anchor="start" x="448" y="-376.8" font-family="sans" font-weight="bold" font-size="14.00">↪ input</text>
<text text-anchor="start" x="509" y="-376.8" font-family="sans" font-size="10.00"> </text>
<text text-anchor="start" x="444" y="-359" font-family="monospace" font-size="10.00">aligned_bam/{species}/{species}_merged_sorted_primary.bam</text>
<text text-anchor="start" x="444" y="-342" font-family="monospace" font-size="10.00">aligned_bam/{species}/{species}_merged_sorted_primary.bam.csi</text>
<text text-anchor="start" x="444" y="-325" font-family="monospace" font-size="10.00">gene_position/{species}/final.Ig_loci.txt</text>
<text text-anchor="start" x="731" y="-304.8" font-family="sans" font-size="10.00"> </text>
<text text-anchor="start" x="735" y="-304.8" font-family="sans" font-weight="bold" font-size="14.00">output →</text>
<text text-anchor="start" x="808" y="-304.8" font-family="sans" font-size="10.00"> </text>
<text text-anchor="start" x="444" y="-287" font-family="monospace" font-size="10.00">errorStats/{species}/IGH_alt_pileup.txt</text>
<text text-anchor="start" x="444" y="-270" font-family="monospace" font-size="10.00">errorStats/{species}/IGK_alt_pileup.txt</text>
<text text-anchor="start" x="444" y="-253" font-family="monospace" font-size="10.00">errorStats/{species}/IGL_alt_pileup.txt</text>
<polygon fill="#57d957" stroke="#57d957" points="438,-391 438,-391 819,-391 819,-391 438,-391"/>
<polygon fill="#57d957" stroke="#57d957" points="438,-319 438,-319 819,-319 819,-319 438,-319"/>
<polygon fill="none" stroke="#57d957" stroke-width="2" points="438,-244.5 438,-419.5 818,-419.5 818,-244.5 438,-244.5"/>
</g>
<!-- 2&#45;&gt;5 -->
<g id="edge6" class="edge"><title>2&#45;&gt;5</title>
<path fill="none" stroke="grey" stroke-width="2" d="M309.763,-499.904C347.563,-480.129 389.543,-458.156 428,-438 435.971,-433.822 444.121,-429.55 452.352,-425.233"/>
<polygon fill="grey" stroke="grey" points="454.082,-428.278 461.312,-420.534 450.831,-422.079 454.082,-428.278"/>
</g>
<!-- 3 -->
<g id="node4" class="node"><title>3</title>
<text text-anchor="start" x="95.5" y="-793.1" font-family="sans" font-weight="bold" font-size="18.00">dataPrepAutomate</text>
<text text-anchor="start" x="31" y="-770.8" font-family="sans" font-size="10.00"> </text>
<text text-anchor="start" x="35" y="-770.8" font-family="sans" font-weight="bold" font-size="14.00">↪ input</text>
<text text-anchor="start" x="96" y="-770.8" font-family="sans" font-size="10.00"> </text>
<text text-anchor="start" x="31" y="-753" font-family="monospace" font-size="10.00">code/dataPrepAutomated.sh</text>
<text text-anchor="start" x="270" y="-732.8" font-family="sans" font-size="10.00"> </text>
<text text-anchor="start" x="274" y="-732.8" font-family="sans" font-weight="bold" font-size="14.00">output →</text>
<text text-anchor="start" x="347" y="-732.8" font-family="sans" font-size="10.00"> </text>
<text text-anchor="start" x="31" y="-715" font-family="monospace" font-size="10.00">aligned_bam/{species}/{species}_merged_sorted.bam</text>
<text text-anchor="start" x="31" y="-698" font-family="monospace" font-size="10.00">aligned_bam/{species}/{species}_merged_sorted.bam.csi</text>
<polygon fill="#57add9" stroke="#57add9" points="25,-785 25,-785 358,-785 358,-785 25,-785"/>
<polygon fill="#57add9" stroke="#57add9" points="25,-747 25,-747 358,-747 358,-747 25,-747"/>
<polygon fill="none" stroke="#57add9" stroke-width="2" points="25,-689 25,-813 357,-813 357,-689 25,-689"/>
</g>
<!-- 3&#45;&gt;2 -->
<g id="edge5" class="edge"><title>3&#45;&gt;2</title>
<path fill="none" stroke="grey" stroke-width="2" d="M191,-687.806C191,-671.364 191,-653.474 191,-636.537"/>
<polygon fill="grey" stroke="grey" points="194.5,-636.135 191,-626.135 187.5,-636.135 194.5,-636.135"/>
</g>
<!-- 4 -->
<g id="node5" class="node"><title>4</title>
<text text-anchor="start" x="606" y="-630.1" font-family="sans" font-weight="bold" font-size="18.00">lociLocation</text>
<text text-anchor="start" x="407" y="-607.8" font-family="sans" font-size="10.00"> </text>
<text text-anchor="start" x="411" y="-607.8" font-family="sans" font-weight="bold" font-size="14.00">↪ input</text>
<text text-anchor="start" x="472" y="-607.8" font-family="sans" font-size="10.00"> </text>
<text text-anchor="start" x="407" y="-590" font-family="monospace" font-size="10.00">/home1/zhuyixin/zhuyixin_proj/AssmQuality/assemblies/{species}.alt.fasta</text>
<text text-anchor="start" x="407" y="-573" font-family="monospace" font-size="10.00">/home1/zhuyixin/zhuyixin_proj/AssmQuality/assemblies/{species}.pri.fasta</text>
<text text-anchor="start" x="407" y="-556" font-family="monospace" font-size="10.00">code/refGene.sh</text>
<text text-anchor="start" x="844" y="-535.8" font-family="sans" font-size="10.00"> </text>
<text text-anchor="start" x="848" y="-535.8" font-family="sans" font-weight="bold" font-size="14.00">output →</text>
<text text-anchor="start" x="921" y="-535.8" font-family="sans" font-size="10.00"> </text>
<text text-anchor="start" x="407" y="-518" font-family="monospace" font-size="10.00">/home1/zhuyixin/zhuyixin_proj/AssmQuality/gene_position/{species}/Ig_loci_details.txt</text>
<text text-anchor="start" x="407" y="-501" font-family="monospace" font-size="10.00">/home1/zhuyixin/zhuyixin_proj/AssmQuality/gene_position/{species}/ref_loci_details.txt</text>
<text text-anchor="start" x="407" y="-484" font-family="monospace" font-size="10.00">gene_position/{species}/final.Ig_loci.txt</text>
<polygon fill="#57d9ad" stroke="#57d9ad" points="401,-622 401,-622 932,-622 932,-622 401,-622"/>
<polygon fill="#57d9ad" stroke="#57d9ad" points="401,-550 401,-550 932,-550 932,-550 401,-550"/>
<polygon fill="none" stroke="#57d9ad" stroke-width="2" points="401,-475.5 401,-650.5 931,-650.5 931,-475.5 401,-475.5"/>
</g>
<!-- 4&#45;&gt;1 -->
<g id="edge4" class="edge"><title>4&#45;&gt;1</title>
<path fill="none" stroke="grey" stroke-width="2" d="M497.588,-474.339C474.208,-462.145 450.501,-449.768 428,-438 427.908,-437.952 427.815,-437.903 427.723,-437.855"/>
<polygon fill="grey" stroke="grey" points="429.554,-434.863 419.07,-433.329 426.309,-441.065 429.554,-434.863"/>
</g>
<!-- 4&#45;&gt;5 -->
<g id="edge7" class="edge"><title>4&#45;&gt;5</title>
<path fill="none" stroke="grey" stroke-width="2" d="M651.471,-474.445C649.088,-460.082 646.605,-445.12 644.185,-430.533"/>
<polygon fill="grey" stroke="grey" points="647.611,-429.799 642.521,-420.507 640.705,-430.945 647.611,-429.799"/>
</g>
<!-- 5&#45;&gt;0 -->
<g id="edge1" class="edge"><title>5&#45;&gt;0</title>
<path fill="none" stroke="grey" stroke-width="2" d="M553.527,-243.495C540.949,-228.715 527.793,-213.257 514.931,-198.143"/>
<polygon fill="grey" stroke="grey" points="517.382,-195.624 508.236,-190.277 512.052,-200.161 517.382,-195.624"/>
</g>
</g>
</svg>
